<?xml version="1.0" encoding="utf-8"?>
<!-- Generator: Adobe Illustrator 22.1.0, SVG Export Plug-In . SVG Version: 6.00 Build 0)  -->
<svg version="1.1" id="Layer_1" xmlns="http://www.w3.org/2000/svg" xmlns:xlink="http://www.w3.org/1999/xlink" x="0px" y="0px"
	 viewBox="0 0 181.7 183" style="enable-background:new 0 0 181.7 183;" xml:space="preserve">
<style type="text/css">
	.st0{fill:#424242;}
	.st1{fill:none;}
	.st2{fill:#FFFFFF;}
</style>
<g>
	<circle class="st0" cx="91" cy="91.6" r="90.9"/>
	<g>
		<path class="st1" d="M99.3,90.5h-0.7l0.7-0.2l0-0.7H84.1l-0.7,0.1l0,0.7c0,0.1,0,0.3,0,0.4c0,4.4-3.2,8-7.1,8c-0.2,0-0.4,0-0.6,0
			L75,98.7v1.2v7.5c0,2.5,2.8,4.5,6.4,4.5h7.4h5.4h6.7c3.6,0,6.4-2,6.4-4.5v-6.7v-2.2l-0.9,0C102.5,98.5,99.3,94.9,99.3,90.5z"/>
		<path class="st2" d="M128.4,102.2l-2.2-9.3l-11.4,2.6l2.1,8.8c0.4,2.2,2.5,3.7,4.8,3.3l3.5-0.6
			C127.3,106.5,128.8,104.4,128.4,102.2z"/>
		<path class="st2" d="M71.7,159.6c0,2.3,1.8,4.1,4.1,4.1H80c2.3,0,4.1-1.8,4.1-4.1l2.2-22.7H71.7V159.6z"/>
		<path class="st2" d="M97.8,160.2c0,2.3,1.8,4.1,4.1,4.1h4.2c2.3,0,4.1-1.8,4.1-4.1v-23.4H96.1L97.8,160.2z"/>
		<path class="st2" d="M125.8,91.5L117.6,57c-0.4-2-2.2-3.5-4.2-3.4c-0.3-0.1-0.6-0.1-0.9-0.1h-5.4c-0.3-0.1-0.6-0.1-0.8-0.1h-5.1
			c0,0-0.1,0.1-0.1,0.1c-1.9,1.9-5.7,3.3-10.1,3.3c-4.4,0-8.2-1.3-10.1-3.3c0,0-0.1-0.1-0.1-0.1h-4.8c-0.3,0-0.6,0-0.8,0.1h-5.8
			c-0.3,0-0.7,0.1-1,0.1c-1.7,0.2-3.2,1.5-3.5,3.3l-8.3,34.8L68,94.4l2.9-12.2l-1.8,49.1c0,1.7,1.1,3.2,2.6,3.8v0.2h38.5v-0.1
			c1.7-0.5,2.9-2.1,2.9-3.9l-1.9-50.4l3.1,13.2L125.8,91.5z M107.3,100.7v6.7c0,2.5-2.8,4.5-6.4,4.5h-6.7h-5.4h-7.4
			c-3.6,0-6.4-2-6.4-4.5v-7.5v-1.2l0.7,0.1c0.2,0,0.4,0,0.6,0c3.9,0,7.1-3.6,7.1-8c0-0.1,0-0.3,0-0.4l0-0.7l0.7-0.1h15.2l0,0.7
			l-0.7,0.2h0.7c0,4.4,3.2,8,7.1,8l0.9,0V100.7z"/>
		<path class="st2" d="M54.1,102.2c-0.4,2.2,1.1,4.4,3.3,4.8l3.5,0.6c2.2,0.4,4.4-1.1,4.8-3.3l2-8.5l-11.4-2.6L54.1,102.2z"/>
		<path class="st2" d="M98.7,45.3c-0.1,0.3-0.2,0.6-0.4,1c-1.2,2.6-4,4.8-7.2,4.8c-3.3,0-6-2.3-7.3-4.9c-0.1-0.2-0.2-0.4-0.3-0.7
			c-0.6-0.1-2.5-0.6-4.3-2.6c0.5,1.7,1.2,3.3,2.2,4.6c2.3,3.5,5.8,5.7,9.7,5.7c3.8,0,7.2-2.1,9.5-5.4c1-1.4,1.8-3,2.3-4.8
			c-2.1,2.2-4.2,2.5-4.4,2.5L98.7,45.3z"/>
		<path class="st2" d="M103.3,29.4c-0.1-2.2-0.6-5.1-2.1-7.3c-2.8-4.1-10.2-3.4-10.2-3.4s-9.1,0.7-11.1,4.1c-1,1.8-1.2,4.6-1.2,6.8
			C83.4,28.7,91.9,28,103.3,29.4z"/>
		<path class="st2" d="M78.7,30.3c0.1,1.5,0.2,2.6,0.2,2.6s0.1,0,0.2-0.1c-0.4,1.5-0.6,3-0.6,4.7c0,0.7,0.1,1.5,0.1,2.2l0.1,0
			c1.5,3,3.5,4,4.5,4.4c0-0.2,0-0.3,0-0.5c0-3.4,3.5-4.9,7.9-4.9S99,40,99,43.4c0,0.2,0,0.4,0,0.6c0.9-0.3,3.2-1.2,4.8-4.5l0,0
			c0.1-0.7,0.1-1.4,0.1-2.2c0-1.7-0.2-3.3-0.6-4.8c0-0.3,0.1-1.2,0-2.4C91.8,28.7,83.4,29.5,78.7,30.3z"/>
	</g>
</g>
</svg>
