<svg id="Layer_1" data-name="Layer 1" xmlns="http://www.w3.org/2000/svg" viewBox="0 0 163.87 163.87"><defs><style>.cls-1{fill:#f7963e;}.cls-2{fill:none;stroke:#f7963e;stroke-miterlimit:10;stroke-width:4px;}.cls-3{fill:#fff;}</style></defs><title>COVID</title><circle class="cls-1" cx="81.93" cy="81.93" r="57.93"/><circle class="cls-1" cx="81.93" cy="154.46" r="9.41"/><circle class="cls-1" cx="81.93" cy="9.41" r="9.41"/><line class="cls-2" x1="81.93" y1="9.41" x2="81.93" y2="154.46"/><circle class="cls-1" cx="133.22" cy="133.22" r="9.41"/><circle class="cls-1" cx="30.65" cy="30.65" r="9.41"/><line class="cls-2" x1="30.65" y1="30.65" x2="133.22" y2="133.22"/><circle class="cls-1" cx="133.22" cy="30.65" r="9.41"/><circle class="cls-1" cx="30.65" cy="133.22" r="9.41"/><line class="cls-2" x1="30.65" y1="133.22" x2="133.22" y2="30.65"/><circle class="cls-1" cx="154.46" cy="81.93" r="9.41"/><circle class="cls-1" cx="9.41" cy="81.93" r="9.41"/><line class="cls-2" x1="9.41" y1="81.93" x2="154.46" y2="81.93"/><circle class="cls-3" cx="74.06" cy="77.24" r="5.09"/><circle class="cls-3" cx="121.35" cy="77.24" r="5.09"/><rect class="cls-3" x="87.34" y="87.25" width="24.75" height="4.3" rx="1.82" ry="1.82"/><path class="cls-3" d="M68,58.31s-11.3,15.6-4.3,22.6S68,69.07,68,58.31Z" transform="translate(-12.22 -8.41)"/></svg>