<?xml version="1.0" encoding="utf-8"?>
<!-- Generator: Adobe Illustrator 22.1.0, SVG Export Plug-In . SVG Version: 6.00 Build 0)  -->
<svg version="1.1" id="Layer_1" xmlns="http://www.w3.org/2000/svg" xmlns:xlink="http://www.w3.org/1999/xlink" x="0px" y="0px"
	 viewBox="0 0 342.8 120.2" style="enable-background:new 0 0 342.8 120.2;" xml:space="preserve">
<style type="text/css">
	.st0{fill:#1A7FB1;}
	.st1{fill:#FFFFFF;}
</style>
<g>
	<path class="st0" d="M326.2,119.7H16.4c-9.2,0-16.6-7.4-16.6-16.6V16.8c0-9.2,7.4-16.6,16.6-16.6h309.8c9.2,0,16.6,7.4,16.6,16.6
		v86.3C342.8,112.2,335.3,119.7,326.2,119.7z"/>
	<g>
		<g>
			<path class="st1" d="M94.8,79.6c0-14.5,0-29,0-43.6c-0.2,0-0.4,0-0.7,0c-10,0-20,0-30.1,0c-1.6,0-2.8-0.8-3.3-2.2
				c-0.8-2,0.7-4.3,2.8-4.4c0.2,0,0.3,0,0.5,0c11.3,0,22.5,0,33.8,0c1.8,0,3,1,3.4,2.6c0.1,0.3,0.1,0.6,0.1,0.9
				c0,16.5,0,33.1,0,49.6c0,1.9-1.4,3.5-3.6,3.5c-11.2,0-22.4,0-33.7,0c-2.1,0-3.5-1.4-3.5-3.4c0-1.5,1.3-2.9,2.8-3.1
				c0.3,0,0.7,0,1.1,0c9.9,0,19.8,0,29.7,0C94.3,79.6,94.6,79.6,94.8,79.6z"/>
			<path class="st1" d="M75,61.1c-0.2,0-0.4,0-0.6,0c-6.5,0-12.9,0-19.4,0c-2,0-3.5-1.4-3.6-3.2c-0.1-1.9,1.5-3.4,3.5-3.4
				c3.8,0,7.6,0,11.4,0c2.9,0,5.7,0,8.7,0c-0.2-0.2-0.3-0.3-0.4-0.4c-1.3-1.3-2.6-2.6-3.9-3.9c-1.7-1.8-1-4.8,1.4-5.4
				c1.3-0.4,2.4,0,3.4,0.9c1.2,1.2,2.4,2.4,3.6,3.5c2,2,4.1,4.1,6.1,6.1c1.5,1.5,1.5,3.5,0,5c-3.2,3.2-6.5,6.4-9.7,9.7
				c-1.8,1.8-4.9,1.2-5.6-1.3c-0.4-1.3-0.1-2.4,0.9-3.4c1.2-1.3,2.5-2.5,3.8-3.8c0.1-0.1,0.3-0.2,0.4-0.3C75,61.2,75,61.1,75,61.1z"
				/>
		</g>
		<g>
			<path class="st1" d="M121.7,34.6h7.4v47.3h-7.4V34.6z"/>
			<path class="st1" d="M134.7,34.6h9.3l7.2,28.3h0.1V34.6h6.6v47.3h-7.6l-8.9-34.5h-0.1v34.5h-6.6V34.6z"/>
			<path class="st1" d="M162.9,70.6V45.8c0-7.6,3.8-11.9,11.1-11.9c7.3,0,11.1,4.3,11.1,11.9v4.1h-7v-4.5c0-3.4-1.5-4.7-3.8-4.7
				c-2.4,0-3.8,1.3-3.8,4.7v25.9c0,3.4,1.5,4.6,3.8,4.6c2.4,0,3.8-1.2,3.8-4.6v-9.2h-3.7v-6.8h10.7v15.5c0,7.6-3.8,11.9-11.1,11.9
				C166.7,82.5,162.9,78.2,162.9,70.6z"/>
			<path class="st1" d="M189.9,34.6h11c7.7,0,11,3.6,11,10.9v2.9c0,4.9-1.6,8-4.9,9.3v0.1c3.7,1.1,4.9,4.7,4.9,10v8.3
				c0,2.3,0.1,4,0.8,5.7h-7.6c-0.4-1.2-0.7-2-0.7-5.8v-8.6c0-4.4-1.3-5.8-4.7-5.8h-2.6v20.3h-7.4V34.6z M200,54.8
				c2.8,0,4.5-1.2,4.5-5v-3.6c0-3.4-1.1-4.9-3.8-4.9h-3.4v13.5H200z"/>
			<path class="st1" d="M217.1,34.6h20.3v6.8h-12.8v12.5h10.2v6.8h-10.2v14.5h12.8v6.8h-20.3V34.6z"/>
			<path class="st1" d="M240.4,70.6v-2.7h7v3.2c0,3.4,1.5,4.6,3.8,4.6c2.4,0,3.8-1.2,3.8-4.7c0-3.9-1.5-6.4-6.3-10.7
				c-6.2-5.5-8.2-9.3-8.2-14.7c0-7.4,3.8-11.7,11.1-11.7c7.2,0,10.8,4.3,10.8,11.9v2h-7v-2.4c0-3.4-1.3-4.7-3.7-4.7
				c-2.4,0-3.7,1.3-3.7,4.5c0,3.4,1.6,5.9,6.4,10.2c6.2,5.5,8.2,9.2,8.2,15.1c0,7.7-3.9,12-11.2,12
				C244.1,82.5,240.4,78.2,240.4,70.6z"/>
			<path class="st1" d="M266.3,70.6V45.8c0-7.6,4-11.9,11.3-11.9s11.3,4.3,11.3,11.9v24.8c0,7.6-4,11.9-11.3,11.9
				S266.3,78.2,266.3,70.6z M281.4,71.1V45.3c0-3.4-1.5-4.7-3.8-4.7s-3.8,1.3-3.8,4.7v25.8c0,3.4,1.5,4.7,3.8,4.7
				S281.4,74.5,281.4,71.1z"/>
		</g>
	</g>
</g>
</svg>
