<?xml version="1.0" encoding="utf-8"?>
<!-- Generator: Adobe Illustrator 22.1.0, SVG Export Plug-In . SVG Version: 6.00 Build 0)  -->
<svg version="1.1" id="Layer_1" xmlns="http://www.w3.org/2000/svg" xmlns:xlink="http://www.w3.org/1999/xlink" x="0px" y="0px"
	 viewBox="0 0 181.7 183" style="enable-background:new 0 0 181.7 183;" xml:space="preserve">
<style type="text/css">
	.st0{fill:#424242;}
	.st1{fill:#FFFFFF;}
</style>
<g>
	<circle class="st0" cx="91" cy="91.6" r="90.6"/>
	<g>
		<path class="st1" d="M120.2,57.3c-0.5,0.3-1,0.6-1.5,0.9c-1.9,1-4.1,2-6.4,2.8c-1.1,0.4-2.2,0.7-3.3,1c-5,1.4-10.5,2.1-16.3,2.1
			c-5.7,0-11.2-0.7-16.1-2.1c-1.2-0.3-2.4-0.7-3.5-1.1c-2.4-0.8-4.7-1.8-6.7-3c-0.3-0.2-0.6-0.3-0.9-0.5l-8.5,35.8l11.6,2.7l4.5-19
			v24.9c-0.1,0.3-0.2,0.7-0.2,1.1v56.7c0,2.3,1.9,4.2,4.2,4.2h4.3c2.3,0,4.2-1.9,4.2-4.2l5.1-51.7h5l3.9,52.4c0,2.3,1.9,4.2,4.2,4.2
			h4.3c2.3,0,4.2-1.9,4.2-4.2v-55.4c0.1-0.4,0.2-0.7,0.2-1.1V75.8l4.7,19.8l11.6-2.7L120.2,57.3z"/>
		<path class="st1" d="M130.6,101.1l-1.6-6.9l-11.6,2.7l1.5,6.3c0.4,2.3,2.6,3.8,4.8,3.4l3.6-0.6C129.5,105.6,131,103.4,130.6,101.1
			z"/>
		<path class="st1" d="M55,101.1c-0.4,2.3,1.1,4.4,3.4,4.8l3.6,0.6c2.3,0.4,4.4-1.1,4.8-3.4l1.4-6l-11.6-2.7L55,101.1z"/>
		<path class="st1" d="M73.1,59.4c1.2,0.4,2.5,0.8,3.9,1.2c4.8,1.3,10.1,2,15.8,2c5.7,0,11.2-0.8,16-2.1c1.2-0.3,2.4-0.7,3.6-1.1
			c2.3-0.8,4.4-1.8,6.4-2.9c0.4-0.2,0.8-0.5,1.2-0.7l-0.2-0.7c-0.4-2.1-2.3-3.5-4.3-3.4c-0.3-0.1-0.6-0.1-0.9-0.1H109
			c-0.3-0.1-0.6-0.1-0.9-0.1H106V21.4c0-2.3-1.9-4.2-4.2-4.2H83.9c-2.3,0-4.2,1.9-4.2,4.2v30.2h-2.5c-0.3,0-0.6,0-0.9,0.1h-5.9
			c-0.3,0-0.7,0.1-1,0.1c-1.8,0.2-3.3,1.6-3.6,3.4L65.7,56c0.2,0.1,0.4,0.2,0.6,0.4C68.4,57.5,70.6,58.6,73.1,59.4z M85.3,29.9
			c0-2.3,1.9-4.2,4.2-4.2h6.9c2.3,0,4.2,1.9,4.2,4.2v10.8c0,2.3-1.9,4.2-4.2,4.2h-6.9c-2.3,0-4.2-1.9-4.2-4.2V29.9z"/>
	</g>
</g>
</svg>
