<svg id="Layer_1" data-name="Layer 1" xmlns="http://www.w3.org/2000/svg" viewBox="0 0 539.67 119.52"><defs><style>.cls-1{fill:#1a7fb1;}.cls-2{fill:#fff;}</style></defs><title>limpiar</title><rect class="cls-1" width="539.67" height="119.52" rx="16.61" ry="16.61"/><path class="cls-2" d="M110.08,38h7.43v40.5h12.22V85.2H110.08Z" transform="translate(-1.13 -0.51)"/><path class="cls-2" d="M133.3,38h7.43V85.2H133.3Z" transform="translate(-1.13 -0.51)"/><path class="cls-2" d="M146.26,38h10.6l4.73,33.82h.13L166.45,38H177V85.2h-7V49.43h-.13l-5.4,35.77h-6.21l-5.4-35.77h-.14V85.2h-6.48Z" transform="translate(-1.13 -0.51)"/><path class="cls-2" d="M182.58,38h10.93c7.43,0,11.07,4.12,11.07,11.68v4.66c0,7.56-3.64,11.67-11.07,11.67H190V85.2h-7.42Zm10.93,21.26c2.37,0,3.65-1.08,3.65-4.45V49.15c0-3.37-1.28-4.45-3.65-4.45H190V59.21Z" transform="translate(-1.13 -0.51)"/><path class="cls-2" d="M208.63,38h7.43V85.2h-7.43Z" transform="translate(-1.13 -0.51)"/><path class="cls-2" d="M227.33,38h10.06l7.69,47.25h-7.42l-1.35-9.38V76h-8.44l-1.35,9.25h-6.89Zm8.1,31.59-3.31-23.35H232l-3.24,23.35Z" transform="translate(-1.13 -0.51)"/><path class="cls-2" d="M248.66,38h11c7.7,0,11,3.58,11,10.87v2.9c0,4.86-1.56,8-4.86,9.32v.13c3.71,1.15,4.92,4.66,4.92,10v8.3a13.94,13.94,0,0,0,.81,5.74H264c-.4-1.21-.67-2-.67-5.8V70.76c0-4.39-1.28-5.81-4.66-5.81h-2.57V85.2h-7.42ZM258.79,58.2c2.76,0,4.45-1.21,4.45-5V49.56c0-3.37-1.15-4.86-3.78-4.86h-3.38V58.2Z" transform="translate(-1.13 -0.51)"/><path class="cls-2" d="M286.19,74.27V48.89c0-7.3,3.78-11.62,10.93-11.62s10.94,4.32,10.94,11.62v5h-7V48.41c0-3.1-1.48-4.39-3.71-4.39s-3.71,1.29-3.71,4.39v26.4c0,3.1,1.48,4.32,3.71,4.32S301,77.91,301,74.81V67.58h7v6.69c0,7.29-3.78,11.61-10.94,11.61S286.19,81.56,286.19,74.27Z" transform="translate(-1.13 -0.51)"/><path class="cls-2" d="M312.51,38h7.43V57.19h8V38h7.42V85.2h-7.42V63.94h-8V85.2h-7.43Z" transform="translate(-1.13 -0.51)"/><path class="cls-2" d="M340.87,38h20.25V44.7H348.29V57.19h10.19v6.75H348.29V78.45h12.83V85.2H340.87Z" transform="translate(-1.13 -0.51)"/><path class="cls-2" d="M364.9,74.27V48.89c0-7.3,3.78-11.62,10.93-11.62s10.94,4.32,10.94,11.62v5h-7V48.41c0-3.1-1.49-4.39-3.72-4.39s-3.71,1.29-3.71,4.39v26.4c0,3.1,1.49,4.32,3.71,4.32s3.72-1.22,3.72-4.32V67.58h7v6.69c0,7.29-3.78,11.61-10.94,11.61S364.9,81.56,364.9,74.27Z" transform="translate(-1.13 -0.51)"/><path class="cls-2" d="M391.22,38h7.43V57.86L408.1,38h7.42L406.68,55.3l9,29.9h-7.77l-6.27-21.06-3,6v15h-7.43Z" transform="translate(-1.13 -0.51)"/><path class="cls-2" d="M419.17,38h7.42v40.5h12.22V85.2H419.17Z" transform="translate(-1.13 -0.51)"/><path class="cls-2" d="M442.38,38h7.43V85.2h-7.43Z" transform="translate(-1.13 -0.51)"/><path class="cls-2" d="M454.06,74V71.3h7v3.24c0,3.37,1.49,4.59,3.85,4.59s3.85-1.22,3.85-4.73c0-3.91-1.49-6.41-6.35-10.66-6.21-5.47-8.23-9.32-8.23-14.72,0-7.43,3.84-11.75,11.07-11.75s10.8,4.32,10.8,11.88v2h-7V48.68c0-3.37-1.35-4.66-3.71-4.66s-3.72,1.29-3.72,4.53c0,3.44,1.56,5.94,6.42,10.19,6.21,5.47,8.16,9.25,8.16,15.12,0,7.7-3.91,12-11.2,12S454.06,81.56,454.06,74Z" transform="translate(-1.13 -0.51)"/><path class="cls-2" d="M486.26,44.7H478.5V38h22.95V44.7h-7.76V85.2h-7.43Z" transform="translate(-1.13 -0.51)"/><path class="cls-2" d="M48.17,54.71c1.44-.77,2.79-1.52,4.16-2.23a3.33,3.33,0,1,1,3.19,5.84c-2.2,1.22-4.41,2.41-6.62,3.62L44.39,64.4A3.4,3.4,0,0,1,39.45,63q-3.08-5.66-6.14-11.3a3.37,3.37,0,0,1,1.18-4.37,3.26,3.26,0,0,1,4.46.9c.83,1.32,1.52,2.73,2.27,4.11.12.23.24.45.41.75.25-.61.46-1.15.71-1.68,3.83-8.11,10.12-13.2,18.92-14.86A25.83,25.83,0,0,1,91.6,57.61a25.75,25.75,0,0,1-18,29.06,25,25,0,0,1-16.45-.48,34.66,34.66,0,0,1-4.1-1.91A3.17,3.17,0,0,1,51.73,80a3.27,3.27,0,0,1,4.33-1.51c1,.47,2,1,3,1.45A19.28,19.28,0,1,0,71.87,43.54c-6.89-2.19-13.15-.73-18.65,3.92a18,18,0,0,0-4.74,6.36c-.09.21-.18.41-.26.62A1.87,1.87,0,0,0,48.17,54.71Z" transform="translate(-1.13 -0.51)"/></svg>