<?xml version="1.0" encoding="utf-8"?>
<!-- Generator: Adobe Illustrator 22.1.0, SVG Export Plug-In . SVG Version: 6.00 Build 0)  -->
<svg version="1.1" id="Layer_1" xmlns="http://www.w3.org/2000/svg" xmlns:xlink="http://www.w3.org/1999/xlink" x="0px" y="0px"
	 viewBox="0 0 541.7 120.9" style="enable-background:new 0 0 541.7 120.9;" xml:space="preserve">
<style type="text/css">
	.st0{fill:#1A7FB1;}
	.st1{enable-background:new    ;}
	.st2{fill:#FFFFFF;}
</style>
<g>
	<path class="st0" d="M523.3,120.5H16.8c-9.2,0-16.6-7.4-16.6-16.6V17.6C0.2,8.5,7.7,1,16.8,1h506.5c9.2,0,16.6,7.4,16.6,16.6v86.3
		C539.9,113.1,532.5,120.5,523.3,120.5z"/>
	<g>
		<g class="st1">
			<path class="st2" d="M109.2,38.5h7.4V79h12.2v6.8h-19.6V38.5z"/>
			<path class="st2" d="M132.4,38.5h7.4v47.3h-7.4V38.5z"/>
			<path class="st2" d="M145.4,38.5H156l4.7,33.8h0.1l4.7-33.8h10.6v47.3h-7V50H169l-5.4,35.8h-6.2L152,50h-0.1v35.8h-6.5V38.5z"/>
			<path class="st2" d="M181.7,38.5h10.9c7.4,0,11.1,4.1,11.1,11.7v4.7c0,7.6-3.6,11.7-11.1,11.7h-3.5v19.2h-7.4V38.5z M192.6,59.7
				c2.4,0,3.6-1.1,3.6-4.5v-5.6c0-3.4-1.3-4.5-3.6-4.5h-3.5v14.5H192.6z"/>
			<path class="st2" d="M207.8,38.5h7.4v47.3h-7.4V38.5z"/>
			<path class="st2" d="M226.4,38.5h10.1l7.7,47.3h-7.4l-1.4-9.4v0.1H227l-1.4,9.2h-6.9L226.4,38.5z M234.5,70.1l-3.3-23.4h-0.1
				l-3.2,23.4H234.5z"/>
			<path class="st2" d="M247.8,38.5h11c7.7,0,11,3.6,11,10.9v2.9c0,4.9-1.6,8-4.9,9.3v0.1c3.7,1.1,4.9,4.7,4.9,10V80
				c0,2.3,0.1,4,0.8,5.7h-7.6c-0.4-1.2-0.7-2-0.7-5.8v-8.6c0-4.4-1.3-5.8-4.7-5.8h-2.6v20.3h-7.4V38.5z M257.9,58.7
				c2.8,0,4.5-1.2,4.5-5v-3.6c0-3.4-1.1-4.9-3.8-4.9h-3.4v13.5H257.9z"/>
			<path class="st2" d="M285.3,74.8V49.4c0-7.3,3.8-11.6,10.9-11.6s10.9,4.3,10.9,11.6v5h-7v-5.5c0-3.1-1.5-4.4-3.7-4.4
				c-2.2,0-3.7,1.3-3.7,4.4v26.4c0,3.1,1.5,4.3,3.7,4.3c2.2,0,3.7-1.2,3.7-4.3v-7.2h7v6.7c0,7.3-3.8,11.6-10.9,11.6
				S285.3,82.1,285.3,74.8z"/>
			<path class="st2" d="M311.6,38.5h7.4v19.2h8V38.5h7.4v47.3H327V64.5h-8v21.3h-7.4V38.5z"/>
			<path class="st2" d="M340,38.5h20.3v6.8h-12.8v12.5h10.2v6.8h-10.2V79h12.8v6.8H340V38.5z"/>
			<path class="st2" d="M364,74.8V49.4c0-7.3,3.8-11.6,10.9-11.6c7.2,0,10.9,4.3,10.9,11.6v5h-7v-5.5c0-3.1-1.5-4.4-3.7-4.4
				s-3.7,1.3-3.7,4.4v26.4c0,3.1,1.5,4.3,3.7,4.3s3.7-1.2,3.7-4.3v-7.2h7v6.7c0,7.3-3.8,11.6-10.9,11.6
				C367.8,86.4,364,82.1,364,74.8z"/>
			<path class="st2" d="M390.3,38.5h7.4v19.9l9.5-19.9h7.4l-8.8,17.3l9,29.9H407l-6.3-21.1l-3,6v15.1h-7.4V38.5z"/>
			<path class="st2" d="M418.3,38.5h7.4V79h12.2v6.8h-19.6V38.5z"/>
			<path class="st2" d="M441.5,38.5h7.4v47.3h-7.4V38.5z"/>
			<path class="st2" d="M453.2,74.5v-2.7h7v3.2c0,3.4,1.5,4.6,3.8,4.6c2.4,0,3.8-1.2,3.8-4.7c0-3.9-1.5-6.4-6.3-10.7
				c-6.2-5.5-8.2-9.3-8.2-14.7c0-7.4,3.8-11.7,11.1-11.7c7.2,0,10.8,4.3,10.8,11.9v2h-7v-2.4c0-3.4-1.3-4.7-3.7-4.7
				c-2.4,0-3.7,1.3-3.7,4.5c0,3.4,1.6,5.9,6.4,10.2c6.2,5.5,8.2,9.2,8.2,15.1c0,7.7-3.9,12-11.2,12S453.2,82.1,453.2,74.5z"/>
			<path class="st2" d="M485.4,45.2h-7.8v-6.8h23v6.8h-7.8v40.5h-7.4V45.2z"/>
		</g>
	</g>
	<g>
		<path class="st2" d="M47.3,55.2c1.4-0.8,2.8-1.5,4.2-2.2c2-1,4.2-0.2,4.8,1.8c0.5,1.5-0.1,3.2-1.6,4c-2.2,1.2-4.4,2.4-6.6,3.6
			c-1.5,0.8-3,1.6-4.5,2.5c-2,1.1-3.9,0.5-4.9-1.4c-2-3.8-4.1-7.5-6.1-11.3c-0.8-1.5-0.3-3.5,1.2-4.4s3.5-0.6,4.5,0.9
			c0.8,1.3,1.5,2.7,2.3,4.1c0.1,0.2,0.2,0.5,0.4,0.8c0.3-0.6,0.5-1.2,0.7-1.7c3.8-8.1,10.1-13.2,18.9-14.9c7.8-1.5,15,0.3,21.2,5.4
			c5,4.1,8,9.4,9.1,15.7c1.2,6.9-0.2,13.4-4.3,19.1c-3.4,4.9-8,8.2-13.7,9.9c-5.5,1.7-11,1.5-16.5-0.5c-1.4-0.5-2.8-1.2-4.1-1.9
			c-1.6-0.8-2.1-2.7-1.3-4.3c0.8-1.6,2.7-2.3,4.3-1.5c1,0.5,2,1,3,1.4c10.9,4.3,22.8-2,25.6-13.3c2.5-10-3-20-12.9-23.1
			c-6.9-2.2-13.1-0.7-18.6,3.9c-2.1,1.7-3.6,3.9-4.7,6.4c-0.1,0.2-0.2,0.4-0.3,0.6C47.3,55,47.3,55.1,47.3,55.2z"/>
	</g>
</g>
</svg>
