<?xml version="1.0" encoding="utf-8"?>
<!-- Generator: Adobe Illustrator 22.1.0, SVG Export Plug-In . SVG Version: 6.00 Build 0)  -->
<svg version="1.1" id="Layer_1" xmlns="http://www.w3.org/2000/svg" xmlns:xlink="http://www.w3.org/1999/xlink" x="0px" y="0px"
	 viewBox="0 0 541.7 120.9" style="enable-background:new 0 0 541.7 120.9;" xml:space="preserve">
<style type="text/css">
	.st0{fill:#1A7FB1;}
	.st1{fill:#FFFFFF;}
	.st2{font-family:'BebasNeue-Regular';}
	.st3{font-size:67.5015px;}
</style>
<g>
	<path class="st0" d="M523.3,120.5H16.8c-9.2,0-16.6-7.4-16.6-16.6V17.6C0.2,8.5,7.7,1,16.8,1h506.5c9.2,0,16.6,7.4,16.6,16.6v86.3
		C539.9,113.1,532.5,120.5,523.3,120.5z"/>
	<g>
		<text transform="matrix(1 0 0 1 106.4336 85.7278)" class="st1 st2 st3">Limpiar checklist</text>
	</g>
	<g>
		<path class="st1" d="M47.3,55.2c1.4-0.8,2.8-1.5,4.2-2.2c2-1,4.2-0.2,4.8,1.8c0.5,1.5-0.1,3.2-1.6,4c-2.2,1.2-4.4,2.4-6.6,3.6
			c-1.5,0.8-3,1.6-4.5,2.5c-2,1.1-3.9,0.5-4.9-1.4c-2-3.8-4.1-7.5-6.1-11.3c-0.8-1.5-0.3-3.5,1.2-4.4c1.5-0.9,3.5-0.6,4.5,0.9
			c0.8,1.3,1.5,2.7,2.3,4.1c0.1,0.2,0.2,0.5,0.4,0.8c0.3-0.6,0.5-1.2,0.7-1.7c3.8-8.1,10.1-13.2,18.9-14.9c7.8-1.5,15,0.3,21.2,5.4
			c5,4.1,8,9.4,9.1,15.7c1.2,6.9-0.2,13.4-4.3,19.1c-3.4,4.9-8,8.2-13.7,9.9c-5.5,1.7-11,1.5-16.5-0.5c-1.4-0.5-2.8-1.2-4.1-1.9
			c-1.6-0.8-2.1-2.7-1.3-4.3c0.8-1.6,2.7-2.3,4.3-1.5c1,0.5,2,1,3,1.4c10.9,4.3,22.8-2,25.6-13.3c2.5-10-3-20-12.9-23.1
			c-6.9-2.2-13.1-0.7-18.6,3.9c-2.1,1.7-3.6,3.9-4.7,6.4c-0.1,0.2-0.2,0.4-0.3,0.6C47.3,55,47.3,55.1,47.3,55.2z"/>
	</g>
</g>
</svg>
