<?xml version="1.0" encoding="utf-8"?>
<!-- Generator: Adobe Illustrator 22.1.0, SVG Export Plug-In . SVG Version: 6.00 Build 0)  -->
<svg version="1.1" id="Layer_1" xmlns="http://www.w3.org/2000/svg" xmlns:xlink="http://www.w3.org/1999/xlink" x="0px" y="0px"
	 viewBox="0 0 350.5 353" style="enable-background:new 0 0 350.5 353;" xml:space="preserve">
<style type="text/css">
	.st0{fill:#424242;}
</style>
<g>
	<path class="st0" d="M349.8,175.7c0,97.4-79.3,176-176,175.4C78,350.4-1.3,271.2,0.4,172.6C2,78.3,78.6,0.3,175.2,0.4
		C271.8,0.5,349.8,79.1,349.8,175.7z M175,345.6c92.4,0.1,168.1-74.6,169.4-167.4C345.8,83.4,269.9,6.6,176.8,5.8
		C82,4.9,5.9,81.8,5.7,175.1C5.6,269.3,81.5,345.6,175,345.6z"/>
	<path class="st0" d="M202.5,201.4c4.2,2.4,8.3,5,12.5,7.2c5.1,2.6,10.2,5.2,15.5,7.4c2,0.9,4.4,0.8,6.6,1.1
		c5.9,0.9,11.5,2.5,16.7,5.6c12.8,7.8,14.1,23.6,7.8,33c-0.1,0.2-0.2,0.4-0.5,1c1.6,0.6,3,1.2,4.5,1.6c1.3,0.4,2.7,0.6,4,1
		c2.4,0.8,3.1,2.3,2.3,4.7c-0.6,1.7-1.3,3.3-2,5.1c-3.2-1-6.3-2.1-9.4-3.1c-15.2-4.7-30.8-7.5-46.6-9.1c-13.5-1.3-26.9-1.7-40.4-1.2
		c-31.5,1.2-62.2,6.4-92.1,16.3c-2.1,0.7-3,0.4-3.7-1.8c-0.5-1.4-0.8-3-1-4.5c-0.1-0.5,0.5-1.2,1-1.5c5.3-3.3,11.1-5.5,17.2-6.9
		c7.3-1.6,14.6-2.8,21.9-4.3c0.9-0.2,1.7-0.7,2.7-1.2c-1.5-2.7-3-5.1-4.3-7.5c-4.9-9.2-8.1-18.9-8.1-29.5c0-0.8-0.6-1.8-1.2-2.4
		c-3.4-3.2-7.1-6.3-10.5-9.6c-2.3-2.2-4.6-4.4-6.5-7c-3.7-5.2-4.1-10.7-0.5-16.4c9.3-14.7,18.3-29.4,27.5-44.1
		c0.5-0.8,1.1-1.5,1.8-2.1c13.3-11.4,28.1-20.4,43.6-28.5c9.5-4.9,19.1-9.6,28.6-14.5c1.8-0.9,3.6-0.6,5.4-0.4
		c6.8,0.7,13.2,2.6,18,7.7c3.8,4.1,6.1,9,7.4,14.4c0.6,2.4-0.5,4.3-2.3,5.8c-1.1,0.9-2.5,1.6-3.7,2.4c-1.7,1.1-3.6,2.2-5.1,3.5
		c-2.6,2.3-3.1,5.1-1.1,8c1.9,2.8,4.2,5.2,6.4,7.8c1.3,1.5,2.7,3,4,4.5c2.6,2.9,3.1,6.7,4.4,10.2c2,5.1,3.4,10.3,3.8,15.8
		c0.8,11.4-3.8,20-13.4,25.9C210.5,198,206.6,199.5,202.5,201.4z M189.7,204.3c-1.8,16.7-28,33.8-44.9,26.3c-2.3,4.1-6.5,6.2-10,9.2
		c-0.6,0.5-1.4,0.9-2.2,1.1c-2.1,0.7-4.9-0.3-5.6-1.7c-0.5-1.2,0.4-3,2.2-4.3c0.3-0.2,0.6-0.3,1-0.4c5.4-1.8,8.5-5.6,9.8-11
		c0.9-3.8,1.5-7.7,2.2-11.5c1.1-6.4,3.4-12,9.9-14.8c0,0,0-0.2,0.1-0.5c-1.1,0.3-2,0.6-2.9,0.9c-3.5,1.2-5.7,3.2-6.5,7.1
		c-0.9,4.8-2.3,9.5-3.8,14.2c-2.1,6.6-6,11.8-13,13.9c-1.2,0.4-2.3,0.8-3.3-0.5c-1-1.2-1-2.5-0.4-3.8c0.3-0.7,0.7-1.3,1.1-2.2
		c-2.5-1.8-5-3.5-7.5-5.2c-0.1,0.1-0.3,0.3-0.4,0.4c0.5,2.1,1,4.2,1.6,6.3c2,7.4,4.8,14.5,9.3,20.8c0.7,1,1.4,1.4,2.8,1.1
		c15.8-3,31.8-4.5,47.8-4.6c9.1,0,18.2,0.3,27.3,0.9c15.7,1,31.3,3.5,46.5,7.7c1.2,0.3,2,0.2,2.9-0.7c4-3.7,5.6-12.4,3-17.2
		c-2.3-4.2-5.7-7.5-10.4-9c-3.8-1.2-7.7-2.1-11.6-2.5c-7.7-0.6-15.4-0.7-23-1c-7.2-0.3-14.3-0.9-21.1-3.5c-4-1.5-4-1.7-2.4-5.7
		c0.6-1.4,1.3-2.5,3.2-1.7c0.9,0.3,1.8,0.4,2.8,0.6c5.4,0.9,10.7,1.4,16.3,0.8C203.5,210.9,196.6,207.7,189.7,204.3z M210.1,106.4
		c-0.5-1.1-0.7-2.2-1.3-2.9c-3.1-3.5-7-5.3-11.6-5.8c-3.5-0.3-6.6,0.2-9.8,2.1c-6.3,3.7-13,6.7-19.5,10.2
		c-8.6,4.6-17.1,9.3-25.6,14.2c-2.6,1.5-4.9,3.5-7.4,5.3c1,0.9,1.9,1.5,2.7,2.2c1.9,1.6,4.2,2.9,5.6,4.9c3.6,4.9,5.1,10.5,4.2,16.6
		c-0.8,5.5-3.2,10.4-6.4,14.9c-4.1,5.8-8.3,11.5-12.7,17.1c-1.8,2.3-1.4,4.1-0.1,6.3c2.3,3.5,5.6,5.9,9.2,8.2
		c2.6-4.4,6.6-6.7,11.2-8.3c2.6-0.9,5.3-1.6,7.9-2.7c2.1-0.8,4-1.9,6-2.9c-0.4-0.8-0.7-1.3-0.9-1.8c-6-12.3-7.5-24.8-1.2-37.3
		c2.9-5.7,6.1-11.4,10-16.5C180.1,117,192.3,107.5,210.1,106.4z M130.7,221.2c2-4,3.1-8.2,3.9-12.5c0.2-1,0-1.7-0.7-2.5
		c-4.7-4.8-9.3-9.7-14-14.6c-0.9-0.9-1.3-1.7-0.5-2.9c2.2-3.4,4.2-6.8,6.5-10.1c3.3-4.7,7.1-9.2,10.3-14c4.4-6.7,5.8-13.8,2.9-21.6
		c-2.1-5.6-5.3-7.9-12.7-7.4c-0.6,0-1.3,0.6-1.7,1.1c-2.3,3.1-4.6,6.2-6.7,9.4c-7.6,12-15,24.1-22.5,36.1c-0.3,0.5-0.5,1.1-0.5,1.6
		c-0.2,1.9-0.4,3.8-0.4,5.7c0,0.8,0.3,1.8,0.8,2.3c3.9,4.2,7.9,8.4,12,12.3C114.3,210.8,121.9,216.6,130.7,221.2z M186.3,193.7
		c7,0.5,13.4,0.5,19.6-1.8c6.4-2.4,11.1-6.5,12.9-13.3c1.7-6.2,1.3-12.4-0.7-18.5c-2.9-8.8-8.2-16.2-14.1-23.2c-1.5-1.8-3-2-4.9-1.8
		c-0.7,0.1-1.5,0.5-2.2,0.7c-6.5,2.2-13,1.6-19.4,0.2c-1.2-0.3-1.8,0-2.3,0.9c-1.9,3.4-4,6.7-5.7,10.2c-3.5,7.4-5.3,15.1-3.8,23.3
		c0.5,2.8,1.3,5.4,2.6,7.7c2-3,4-6,5.9-8.9c1-1.4,1.9-2.9,2.9-4.3c0.7-1,0.7-1.8,0-2.8c-2.2-3.3-3.7-7-3.1-11
		c0.9-5.9,4.8-9.1,9.9-11.3c3.7-1.6,7.2-1.1,10.4,1.1c1.8,1.3,3.5,2.8,5.3,4.2c3,2.4,3.8,5.5,3.5,9.2c-0.2,2.3-0.2,4.6-0.1,6.9
		c0.2,3.1,1.5,4.2,4.5,4.2c1,0,2-0.1,3-0.1c0.8,0,1.6-0.1,2.3,0.1c3,0.8,3.8,2.1,2,4.7c-0.7,1-2.3,1.9-3.5,2c-2.7,0.3-5.4,0-8.1,0.1
		c-4.4,0.1-8.3,1.3-11.5,4.6c-0.9,1-1.9,1.9-3,2.7c-1.3,0.8-2.4,0.3-3.5-0.7c-1.1-1-0.9-1.8-0.3-2.9c2.7-4.9,7-7.8,12.2-9.4
		c0.4-0.1,0.8-0.3,1.5-0.5c-3-1.4-3.3-3.7-2.9-6.3c0.3-2,0.8-4.1,0.9-6.1c0.1-3.2-1.8-5.8-4.9-6.6c-1.9-0.4-4-0.6-6-0.4
		c-1.2,0.1-2.6,0.9-3.4,1.8c-2.5,3-1.9,8,1,10.6c1.1,1,2.3,1.9,3.5,2.8c2.2,1.8,1.3,3.2-0.2,4.5c-0.5,0.5-1.2,0.8-1.8,1.1
		c-3.1,1.3-4.8,4-6.3,6.7c-1,1.8-0.8,3.3,0.8,4.6c0.8,0.7,0.8,1.3,0.4,2.1c-0.9,1.6-1.7,3.3-2.7,4.8c-4.1,6-9.7,10.5-15.7,14.5
		c-0.8,0.5-1.7,0.9-2.6,1.1c-4.4,1.2-7.6,3.8-8.8,8.2c-1.3,4.9-2.1,10-3.1,15.1c0.1,0,0.3,0.1,0.4,0.1c0.4-1.1,0.8-2.2,1.2-3.3
		c1-2.8,2-5.5,2.2-8.5c0.3-4.7,2.8-7.4,7.5-8.4c3.2-0.7,6.4-1,9.6-1.5c3.1-0.5,6-1.2,8.5-3.3c2.3-2,2.4-3.2,0.4-5.5
		c-0.6-0.7-1.3-1.4-1.9-2.1c-0.8-1.1-0.7-1.9,0.6-2.6c2.9-1.4,5.9-2.8,8.7-4.3c3.2-1.8,6.3-3.7,9.4-5.6c0.9-0.5,1.5-1.4,2.4-2.3
		c1.5,2,2.9,3.9,4.4,5.8C195.7,186.5,191.2,190,186.3,193.7z M209.1,115.7c-0.7-0.1-0.8-0.2-0.9-0.2c-9.6,0.5-17.8,4.2-24.9,10.7
		c-1,0.9-0.4,1.7,0.3,2.2c0.7,0.5,1.6,0.9,2.4,0.9c7.5,0,14.1-2.3,19.1-8.1C206.6,119.6,207.7,117.7,209.1,115.7z M180.6,207
		c-0.4,0-0.6,0-0.7,0.1c-5.9,3-12,5.4-18.6,6.2c-0.3,0-0.8,0.3-0.9,0.6c-1.3,3.3-2.5,6.6-3.9,10.2C166.7,221,175.9,217.3,180.6,207z
		"/>
	<path class="st0" d="M125.9,55.5c5.5-1.2,7.7,2.6,9.7,6.6c0.5,1.1,1.1,2.3,1.8,3.3c0.6,0.8,1.5,1.3,2.5,2c-3.6,1.8-7,3.6-10.4,5.3
		c-0.3,0.1-1.1-0.4-1.3-0.7c-1.1-1.8-2.2-3.7-3.2-5.5c-1.8-3.1-3.3-3.6-6.6-2.2c-1.5,0.6-2.9,1.4-4.5,2.2c1.9,3.8,3.7,7.4,5.7,11.3
		c-3.5,1.8-7,3.6-10.7,5.5c-5.5-10.9-11-21.6-16.6-32.5c5-2.6,9.8-5.1,14.7-7.4c2.9-1.4,5.9-2.7,9-3.5c4.5-1.2,7.6,0.1,9.9,3.5
		c2.5,3.8,3.2,8.2,0.2,11.7C125.9,55,125.9,55.2,125.9,55.5z M106.7,52.9c1.2,2.3,2.2,4.3,3.3,6.4c2.1-1.1,4.1-2.1,5.9-3.3
		c2-1.3,2.5-2.8,1.7-4.4c-0.9-1.8-2.7-2.5-4.8-1.6C110.8,50.8,108.9,51.9,106.7,52.9z"/>
	<path class="st0" d="M54.5,119.6c2.3-5,4.5-9.9,6.8-14.9c3.1,1.4,6.2,2.8,9.2,4.2c3,1.4,6,2.8,9.2,4.2c-1.1,2.4-2.1,4.6-3.2,7
		c-1.1-0.3-2.1-0.5-3.3-0.9c1.9,5.3,0.6,10-2.2,14.3c-3.4,5.2-8.2,7.8-14.5,7.7c-8.1-0.2-16.7-5.9-19.4-13.1
		c-3.6-9.8,2.8-22.6,12.5-24.9c2.6-0.6,5.2-0.5,8,0.3c-1.5,3.2-2.9,6.4-4.4,9.4c-0.2,0.4-0.9,0.7-1.3,0.8c-3,0.1-4.9,1.6-5.9,4.3
		c-1,2.6-0.2,4.8,1.7,6.6c2.8,2.8,6.2,4.4,10,5c5.2,0.8,9.3-4.3,7.6-9.2c-0.2-0.7-0.8-1.4-1.3-2.4c-0.9,1.8-1.6,3.3-2.3,4.9
		C59.3,121.8,57,120.8,54.5,119.6z"/>
	<path class="st0" d="M271.3,70.1c0,10.4-9.4,20.1-19.3,20.1c-10.1,0-20-9.3-20-18.9c-0.1-10.3,9.5-20.4,19.3-20.4
		C261.6,50.9,271.3,60.2,271.3,70.1z M260.3,67.6c0.1-5-5.1-8.2-9.5-5.7c-4.2,2.4-6.9,6.1-7.7,10.9c-0.9,4.7,3.9,8.5,8.4,7
		C255.6,78.4,260.2,72,260.3,67.6z"/>
	<path class="st0" d="M175.4,47.1c0,11.1-8,18.6-19.9,18.7c-11.1,0-18.4-7.9-18.4-20.1c0-11,8.1-18.4,19.9-18.4
		C167.9,27.3,175.4,35.4,175.4,47.1z M163.8,48.3c-0.4-3.4-0.9-6.7-3-9.4c-1.4-1.9-3.3-2.8-5.7-2.5c-2.6,0.3-4.6,1.6-5.4,4.2
		c-1.5,4.9-0.8,9.5,2.1,13.7c2.8,3.9,8.8,3.2,10.8-1.2C163.3,51.6,163.4,49.9,163.8,48.3z"/>
	<path class="st0" d="M55.9,84c2.3-2.1,5.2-4.8,8.1-7.5c2.3,2.3,4.9,4.7,7.4,7.1c3,2.9,5.9,5.8,9,8.6c2.9,2.7,5.3,2.5,8-0.4
		c2.2-2.4,2.2-4.7-0.1-7.2c-2.2-2.4-4.8-4.6-7-7c-3.1-3.2-6-6.5-9.2-9.9c2.5-2.3,5.4-4.9,8.7-8.1c5.2,5.4,10.9,11,16.3,16.9
		c5.2,5.7,5.4,11.9,0.6,18c-2.3,3-5.2,5.7-8.2,8c-4.9,3.6-10.2,3.4-15.2-0.2c-2.5-1.8-4.8-3.9-6.9-6.1C63.5,92.4,59.8,88.3,55.9,84z
		"/>
	<path class="st0" d="M41.5,148.7c2.9,0.3,5.5,0.6,8.4,0.9c-0.5,5-1,9.8-1.5,14.9c1.8,0.2,3.6,0.4,5.6,0.6c0.7-6.1,1.3-12.1,2-18.3
		c2.8,0.3,5.5,0.6,8.5,0.9c-1.1,10.1-2.2,20.1-3.3,30.3c-12.1-1.3-24.1-2.6-36.3-3.9c1.1-9.9,2.1-19.6,3.2-29.6
		c2.9,0.3,5.6,0.6,8.5,0.9c-0.6,5.9-1.3,11.7-1.9,17.6c1.8,0.2,3.3,0.4,5.1,0.6C40.4,158.6,41,153.7,41.5,148.7z"/>
	<path class="st0" d="M231.9,49.2c-3.5-1.2-6.8-2.2-10-3.3c-0.3-0.1-0.7-0.6-0.7-1c-0.6-2.6-4-4.7-6.6-4.1c-1.3,0.3-1.8,1.8-0.9,3
		c0.7,0.9,1.7,1.7,2.6,2.4c1.6,1.1,3.3,2.1,4.9,3.2c1.2,0.8,2.3,1.6,3.4,2.5c3.3,2.8,5.2,6.1,4,10.6c-1.3,4.7-4.4,7.8-9.2,8.4
		c-7.3,0.8-14-0.9-19.4-6.3c-3.1-3.1-4.4-6.9-3.3-11.5c3.6,1.2,7.2,2.3,10.7,3.5c0.7,3.8,2.7,5.6,6.5,5.8c1,0,2.3-0.6,3-1.3
		c0.9-1.1-0.1-2.2-1-2.8c-1.7-1.3-3.6-2.4-5.4-3.7c-2.1-1.5-4.2-2.9-6-4.6c-3.1-2.9-3.7-6.5-2.4-10.4c1.3-4,4.1-6.5,8.3-7.1
		c6.6-0.9,12.6,0.8,17.7,5.1C231.6,40.4,232.7,44.4,231.9,49.2z"/>
	<path class="st0" d="M35.8,186.2c0.7,3.5,1.3,6.7,1.9,10c0.1,0.5-0.3,1.3-0.7,1.7c-1.7,1.7-1.8,6.1,0,7.6c1,0.9,2.6,0.5,3-1.1
		c0.5-1.9,0.6-3.8,0.9-5.8c0.3-2.5,0.3-5,0.8-7.4c0.8-4.2,2.8-7.4,7.2-8.5c4.7-1.1,8.9-0.1,11.8,3.8c4.5,6.1,6.1,12.9,4,20.3
		c-1.2,4.1-3.9,7.1-8.5,8.4c-0.3-1.6-0.6-3.1-0.9-4.6c-0.2-1-0.3-2.1-0.6-3.1c-0.4-1.8-0.8-3.4,1.1-4.9c2-1.6,1.3-6.6-0.7-8.3
		c-1.1-1-2.7-0.8-3.2,0.7c-0.5,1.3-0.7,2.7-0.9,4.1c-0.4,3.3-0.5,6.7-1.1,10c-0.8,4.4-3.6,7.2-8.1,8.1c-4.4,0.8-8-0.6-10.6-4.2
		c-3.8-5.4-5.1-11.6-3.6-18C28.4,190.4,31.4,187.7,35.8,186.2z"/>
	<path class="st0" d="M295.4,113.6c-2.2-3.2-4.3-6.2-6.5-9.3c1.7-1.9,3-3.8,2.3-6.4c-1.1-3.7-4.2-5.6-7.9-4.6
		c-3.8,1.1-7,3.2-9.5,6.2c-2.2,2.6-2.2,5.4-0.2,8.1c1.8,2.5,4.2,3.1,7.4,1.9c0.4-0.1,0.8-0.3,1.2-0.4c2.2,3.2,4.3,6.3,6.6,9.4
		c-5.2,2.7-10.4,3.2-15.6,0.5c-8.1-4.2-12.8-15.1-10-23.2c3.4-10,15.9-16.2,25.5-12.7c8.6,3.1,14.7,14.5,12.2,22.7
		C299.8,109,298,111.4,295.4,113.6z"/>
	<path class="st0" d="M284.9,154c-0.5-3.9-1-7.6-1.5-11.6c3.3,0.7,6.4,1.4,9.5,2.1c9,2,17.9,4,26.9,5.9c1.1,0.2,1.6,0.7,1.8,1.9
		c0.3,3.1,0.8,6.2,1.1,9.3c0.1,0.5-0.3,1.4-0.7,1.6c-11,5.7-22,11.3-33,16.9c-0.1,0.1-0.2,0-0.6,0.1c-0.3-2.4-0.7-4.8-1-7.1
		c0-0.1,0-0.2,0-0.4c-0.1-1.3-0.7-2.9-0.2-4c0.5-0.9,2.2-1.1,3.3-1.8c0.4-0.3,0.8-1,0.8-1.4c-0.3-3.2-0.7-6.5-1.2-9.7
		c-0.1-0.4-0.7-1-1.2-1.1C287.5,154.3,286.2,154.2,284.9,154z M298.6,163.5c4-1.8,7.8-3.4,11.6-5.1c0-0.1,0-0.3-0.1-0.4
		c-4.1-0.6-8.2-1.2-12.5-1.8C298,158.7,298.3,161,298.6,163.5z"/>
	<path class="st0" d="M323.3,187.5c-0.7,4-1.3,7.9-2,11.8c-9.2-1.5-18.3-3-27.5-4.6c-0.9,5.4-1.8,10.7-2.7,16.2
		c-2.8-0.5-5.6-0.9-8.4-1.4c1.6-9.4,3.1-18.6,4.7-28C299.4,183.6,311.2,185.5,323.3,187.5z"/>
	<path class="st0" d="M281.4,140.9c-1.5-3.8-2.9-7.4-4.4-11.2c11.3-4.4,22.6-8.8,34-13.2c1.4,3.7,2.9,7.3,4.4,11.2
		C304.1,132.1,292.8,136.5,281.4,140.9z"/>
	<path class="st0" d="M200.8,303.4c2.8,2,0.7,5.2,2.3,7.6c-1.4,0-2.5,0-3.9,0c-0.1-1.3-0.2-2.5-0.2-3.7c0-1.7-0.8-2.5-2.4-2.6
		c-1.1,0-2.2,0-3.6,0c0,2.1,0,4.1,0,6.3c-1.2,0-2.2,0-3.3,0c0-5.3,0-10.6,0-15.9c3.3,0,6.5-0.1,9.7,0.1c1.6,0.1,2.7,1.3,3.2,2.9
		c0.5,1.6,0.3,3.2-0.9,4.5C201.5,302.8,201.2,303,200.8,303.4z M193.1,297.8c0,1.4,0,2.7,0,4.1c1.6,0,3.1,0.1,4.6,0
		c1.2-0.1,1.8-0.8,1.8-2c0-1.2-0.6-2-1.7-2C196.2,297.7,194.7,297.8,193.1,297.8z"/>
	<path class="st0" d="M123.3,302.9c0-6.1,4.1-9.5,9.8-8.2c3.5,0.8,5.5,3.4,5.8,7.9c0.5,6.3-4.7,10.4-10.6,8.5
		C125,310,123.3,307.2,123.3,302.9z M135.5,302.9c0-2.9-1.2-4.9-3.4-5.4c-1.6-0.4-3,0-4,1.2c-1.7,2.2-1.7,4.7-0.8,7.2
		c0.6,1.6,1.8,2.5,3.5,2.6C133.7,308.7,135.5,306.5,135.5,302.9z"/>
	<path class="st0" d="M140.5,306.1c1.6,0.1,3.1-0.6,3.9,1.5c0.6,1.4,4.3,1.4,5.5,0.3c1-0.9,0.6-2.3-0.8-2.8
		c-1.4-0.5-2.9-0.8-4.3-1.1c-3.2-0.8-4.3-2.1-4.1-4.8c0.1-2.6,1.7-4.1,4.7-4.6c3.8-0.6,6.8,0.9,7.6,3.9c0.1,0.3,0.1,0.7,0.1,1.2
		c-1.5,0-2.9,0.8-3.9-1.2c-0.6-1.4-3.7-1.4-4.8-0.4c-1,0.9-0.7,2.3,0.7,2.8c1.5,0.5,3,0.8,4.5,1.1c3.1,0.8,4.1,2,4.1,4.7
		c-0.1,2.5-1.6,4.3-4.4,4.7c-1.5,0.2-3.2,0.2-4.7-0.2C141.9,310.6,140.8,309.1,140.5,306.1z"/>
	<path class="st0" d="M241.8,311.1c-0.8,0-1.4-0.1-2,0c-1.4,0.2-2.2-0.3-2.3-1.7c-0.1-1.5-1-1.8-2.3-1.7c-0.6,0.1-1.3,0.1-1.9,0
		c-1.6-0.2-2.5,0.3-2.9,2c-0.5,2.5-2.5,0.9-4.1,1.5c0.7-1.8,1.2-3.4,1.7-4.9c1.2-3.4,2.4-6.9,3.7-10.3c0.2-0.5,1.1-1.1,1.6-1
		c1,0,2.4-0.8,2.9,0.8C238.2,300.8,240,305.9,241.8,311.1z M234.1,298.7c-0.7,2.3-1.4,4.2-2,6.2c1.4,0,2.6,0,4,0
		C235.4,302.9,234.8,301,234.1,298.7z"/>
	<path class="st0" d="M181.7,311.1c-0.8,0-1.4-0.1-1.9,0c-1.4,0.2-2.2-0.3-2.4-1.8c-0.2-1.4-0.9-1.7-2.2-1.6c-0.6,0.1-1.2,0.1-1.8,0
		c-1.8-0.3-3,0.3-3.2,2.2c-0.1,1-0.8,1.2-1.7,1.1c-0.7-0.1-1.4,0-2.3,0c1.9-5.2,3.6-10.3,5.5-15.3c0.6-1.5,1.9-0.7,2.9-0.8
		c0.5,0,1.4,0.4,1.6,0.9C178.1,300.8,179.9,305.8,181.7,311.1z M172,304.8c1.4,0,2.6,0,4,0c-0.6-2-1.2-3.9-1.9-6.2
		C173.3,301,172.7,302.8,172,304.8z"/>
	<path class="st0" d="M122,300.1c-2.1,0.1-3.5,0.5-4.6-1.4c-1.1-2-4.5-1.5-5.7,0.6c-1.4,2.5-1.4,5.2,0,7.6c1.2,2.2,4.6,2.4,5.8,0.2
		c1-1.9,2.3-1.7,4.1-1.5c-0.3,2.2-1.3,3.9-3.1,5c-4.3,2.5-9.8,0.3-10.7-4.6c-0.4-2.1-0.3-4.4,0.1-6.5c0.6-2.7,2.6-4.5,5.4-4.9
		c2.8-0.5,5.3,0.1,7.2,2.4C121.1,297.8,121.4,298.8,122,300.1z"/>
	<path class="st0" d="M225.3,300.1c-1.7,0.1-3.2,0.4-4.3-1.6c-0.9-1.7-4.1-1.4-5.4,0.3c-1.6,2-1.6,6.5,0.1,8.5
		c1.5,1.7,4.2,1.6,5.6-0.2c1.4-1.9,1.4-1.9,3.9-1.5c-0.5,3.6-2.8,5.7-6.2,5.8c-4.2,0.1-7.1-1.9-7.8-5.7c-0.3-1.8-0.3-3.7,0-5.4
		c0.6-3.7,3.6-6,7.3-5.9C222.2,294.5,224.7,296.5,225.3,300.1z"/>
	<path class="st0" d="M154.8,295c4.3,0,8.6,0,13,0c0,0.9,0,1.7,0,2.7c-1.5,0-3,0-4.7,0c0,4.5,0,8.8,0,13.2c-1.2,0-2.2,0-3.4,0
		c0-4.3,0-8.6,0-13.1c-1.7,0-3.2,0-4.8,0C154.8,296.8,154.8,296,154.8,295z"/>
	<path class="st0" d="M205.5,295c1.1,0,2,0,3.1,0c0,5.3,0,10.6,0,16c-1,0-2,0-3.1,0C205.5,305.7,205.5,300.4,205.5,295z"/>
</g>
</svg>
