<svg id="Layer_1" data-name="Layer 1" xmlns="http://www.w3.org/2000/svg" viewBox="0 0 486.18 119.52"><defs><style>.cls-1{fill:#1a7fb1;}.cls-2{fill:#fff;}</style></defs><title>menu</title><rect class="cls-1" width="486.18" height="119.52" rx="16.61" ry="16.61"/><path class="cls-2" d="M112.34,37.59h10.6l4.73,33.82h.13l4.73-33.82h10.6V84.84h-7V49.07H136l-5.4,35.77h-6.21L119,49.07h-.14V84.84h-6.48Z" transform="translate(-2.38 -0.15)"/><path class="cls-2" d="M148.66,37.59h20.25v6.75H156.08V56.83h10.2v6.75h-10.2V78.09h12.83v6.75H148.66Z" transform="translate(-2.38 -0.15)"/><path class="cls-2" d="M173.16,37.59h9.32l7.22,28.28h.13V37.59h6.62V84.84h-7.63l-8.91-34.49h-.13V84.84h-6.62Z" transform="translate(-2.38 -0.15)"/><path class="cls-2" d="M201.71,73.64v-36h7.43V74.18c0,3.37,1.42,4.59,3.78,4.59s3.78-1.22,3.78-4.59V37.59h7.16V73.64c0,7.56-3.78,11.88-11.08,11.88S201.71,81.2,201.71,73.64Zm11.75-47h8.1l-7.22,7.77h-5.61Z" transform="translate(-2.38 -0.15)"/><path class="cls-2" d="M239.92,37.59h10.93c7.43,0,11.07,4.12,11.07,11.68v4.66c0,7.56-3.64,11.67-11.07,11.67h-3.51V84.84h-7.42Zm10.93,21.26c2.37,0,3.65-1.08,3.65-4.45V48.79c0-3.37-1.28-4.45-3.65-4.45h-3.51V58.85Z" transform="translate(-2.38 -0.15)"/><path class="cls-2" d="M266,37.59h11c7.69,0,11,3.58,11,10.87v2.9c0,4.86-1.55,8-4.86,9.32v.13c3.71,1.15,4.93,4.66,4.93,10v8.3a13.78,13.78,0,0,0,.81,5.74H281.3c-.41-1.21-.68-2-.68-5.8V70.4c0-4.39-1.28-5.81-4.66-5.81H273.4V84.84H266ZM276.1,57.84c2.77,0,4.45-1.21,4.45-5V49.2c0-3.37-1.14-4.86-3.78-4.86H273.4v13.5Z" transform="translate(-2.38 -0.15)"/><path class="cls-2" d="M293.18,37.59h7.42V84.84h-7.42Z" transform="translate(-2.38 -0.15)"/><path class="cls-2" d="M306.13,37.59h9.32l7.22,28.28h.14V37.59h6.61V84.84H321.8l-8.91-34.49h-.14V84.84h-6.62Z" transform="translate(-2.38 -0.15)"/><path class="cls-2" d="M334.48,73.91V48.53c0-7.3,3.78-11.62,10.94-11.62s10.94,4.32,10.94,11.62v5h-7V48.05c0-3.1-1.49-4.38-3.72-4.38s-3.71,1.28-3.71,4.38v26.4c0,3.1,1.49,4.32,3.71,4.32s3.72-1.22,3.72-4.32V67.22h7v6.69c0,7.29-3.78,11.61-10.94,11.61S334.48,81.2,334.48,73.91Z" transform="translate(-2.38 -0.15)"/><path class="cls-2" d="M360.81,37.59h7.43V84.84h-7.43Z" transform="translate(-2.38 -0.15)"/><path class="cls-2" d="M373.77,37.59h10.94c7.42,0,11.07,4.12,11.07,11.68v4.66c0,7.56-3.65,11.67-11.07,11.67H381.2V84.84h-7.43Zm10.94,21.26c2.36,0,3.64-1.08,3.64-4.45V48.79c0-3.37-1.28-4.45-3.64-4.45H381.2V58.85Z" transform="translate(-2.38 -0.15)"/><path class="cls-2" d="M403.2,37.59h10.06L421,84.84h-7.42l-1.35-9.38v.13h-8.44l-1.35,9.25H395.5Zm8.1,31.59L408,45.83h-.13l-3.24,23.35Z" transform="translate(-2.38 -0.15)"/><path class="cls-2" d="M424.53,37.59H432v40.5h12.21v6.75H424.53Z" transform="translate(-2.38 -0.15)"/><rect class="cls-2" x="43.3" y="41.92" width="43.77" height="7.96"/><rect class="cls-2" x="43.3" y="59.52" width="43.77" height="7.96"/><rect class="cls-2" x="43.3" y="77.12" width="43.77" height="7.96"/></svg>