<?xml version="1.0" encoding="utf-8"?>
<!-- Generator: Adobe Illustrator 22.1.0, SVG Export Plug-In . SVG Version: 6.00 Build 0)  -->
<svg version="1.1" id="Layer_1" xmlns="http://www.w3.org/2000/svg" xmlns:xlink="http://www.w3.org/1999/xlink" x="0px" y="0px"
	 viewBox="0 0 541.7 120.9" style="enable-background:new 0 0 541.7 120.9;" xml:space="preserve">
<style type="text/css">
	.st0{fill:#1A7FB1;}
	.st1{fill:#FFFFFF;}
</style>
<g>
	<path class="st0" d="M523.3,120.5H16.8c-9.2,0-16.6-7.4-16.6-16.6V17.6C0.2,8.5,7.7,1,16.8,1h506.5c9.2,0,16.6,7.4,16.6,16.6v86.3
		C539.9,113.1,532.5,120.5,523.3,120.5z"/>
	<g>
		<g>
			<g>
				<path class="st1" d="M138.2,38.6h10.6l4.7,33.8h0.1l4.7-33.8H169v47.3h-7V50.1h-0.1l-5.4,35.8h-6.2l-5.4-35.8h-0.1v35.8h-6.5
					V38.6z"/>
				<path class="st1" d="M174.6,38.6h20.3v6.8H182v12.5h10.2v6.8H182v14.5h12.8v6.8h-20.3V38.6z"/>
				<path class="st1" d="M199.1,38.6h9.3l7.2,28.3h0.1V38.6h6.6v47.3h-7.6l-8.9-34.5h-0.1v34.5h-6.6V38.6z"/>
				<path class="st1" d="M227.6,74.6v-36h7.4v36.6c0,3.4,1.4,4.6,3.8,4.6c2.4,0,3.8-1.2,3.8-4.6V38.6h7.2v36
					c0,7.6-3.8,11.9-11.1,11.9C231.4,86.5,227.6,82.2,227.6,74.6z M239.4,27.7h8.1l-7.2,7.8h-5.6L239.4,27.7z"/>
				<path class="st1" d="M265.8,38.6h10.9c7.4,0,11.1,4.1,11.1,11.7v4.7c0,7.6-3.6,11.7-11.1,11.7h-3.5v19.2h-7.4V38.6z M276.8,59.9
					c2.4,0,3.6-1.1,3.6-4.5v-5.6c0-3.4-1.3-4.5-3.6-4.5h-3.5v14.5H276.8z"/>
				<path class="st1" d="M291.9,38.6h11c7.7,0,11,3.6,11,10.9v2.9c0,4.9-1.6,8-4.9,9.3v0.1c3.7,1.1,4.9,4.7,4.9,10v8.3
					c0,2.3,0.1,4,0.8,5.7h-7.6c-0.4-1.2-0.7-2-0.7-5.8v-8.6c0-4.4-1.3-5.8-4.7-5.8h-2.6v20.3h-7.4V38.6z M302,58.8
					c2.8,0,4.5-1.2,4.5-5v-3.6c0-3.4-1.1-4.9-3.8-4.9h-3.4v13.5H302z"/>
				<path class="st1" d="M319.1,38.6h7.4v47.3h-7.4V38.6z"/>
				<path class="st1" d="M332,38.6h9.3l7.2,28.3h0.1V38.6h6.6v47.3h-7.6l-8.9-34.5h-0.1v34.5H332V38.6z"/>
				<path class="st1" d="M360.4,74.9V49.5c0-7.3,3.8-11.6,10.9-11.6c7.2,0,10.9,4.3,10.9,11.6v5h-7v-5.5c0-3.1-1.5-4.4-3.7-4.4
					s-3.7,1.3-3.7,4.4v26.4c0,3.1,1.5,4.3,3.7,4.3s3.7-1.2,3.7-4.3v-7.2h7v6.7c0,7.3-3.8,11.6-10.9,11.6
					C364.2,86.5,360.4,82.2,360.4,74.9z"/>
				<path class="st1" d="M386.7,38.6h7.4v47.3h-7.4V38.6z"/>
				<path class="st1" d="M399.7,38.6h10.9c7.4,0,11.1,4.1,11.1,11.7v4.7c0,7.6-3.6,11.7-11.1,11.7h-3.5v19.2h-7.4V38.6z M410.6,59.9
					c2.4,0,3.6-1.1,3.6-4.5v-5.6c0-3.4-1.3-4.5-3.6-4.5h-3.5v14.5H410.6z"/>
				<path class="st1" d="M429.1,38.6h10.1l7.7,47.3h-7.4l-1.4-9.4v0.1h-8.4l-1.4,9.2h-6.9L429.1,38.6z M437.2,70.2l-3.3-23.4h-0.1
					l-3.2,23.4H437.2z"/>
				<path class="st1" d="M450.4,38.6h7.4v40.5h12.2v6.8h-19.6V38.6z"/>
			</g>
		</g>
		<g>
			<rect x="71.6" y="43.1" class="st1" width="43.8" height="8"/>
			<rect x="71.6" y="60.7" class="st1" width="43.8" height="8"/>
			<rect x="71.6" y="78.3" class="st1" width="43.8" height="8"/>
		</g>
	</g>
</g>
</svg>
