<?xml version="1.0" encoding="utf-8"?>
<!-- Generator: Adobe Illustrator 22.1.0, SVG Export Plug-In . SVG Version: 6.00 Build 0)  -->
<svg version="1.1" id="Layer_1" xmlns="http://www.w3.org/2000/svg" xmlns:xlink="http://www.w3.org/1999/xlink" x="0px" y="0px"
	 viewBox="0 0 342.8 120.2" style="enable-background:new 0 0 342.8 120.2;" xml:space="preserve">
<style type="text/css">
	.st0{fill:#62BB50;}
	.st1{fill:#FFFFFF;}
</style>
<g>
	<path class="st0" d="M326.6,119.9H16.8c-9.2,0-16.6-7.4-16.6-16.6V16.9c0-9.2,7.4-16.6,16.6-16.6h309.8c9.2,0,16.6,7.4,16.6,16.6
		v86.3C343.2,112.4,335.7,119.9,326.6,119.9z"/>
	<g>
		<g>
			<path class="st1" d="M109.1,79.7c0-14.8,0-29.5,0-44.3c-0.2,0-0.5,0-0.7,0c-10.2,0-20.4,0-30.5,0c-1.7,0-2.8-0.8-3.4-2.2
				c-0.8-2,0.7-4.3,2.9-4.4c0.2,0,0.3,0,0.5,0c11.4,0,22.9,0,34.3,0c1.8,0,3.1,1,3.4,2.7c0.1,0.3,0.1,0.6,0.1,0.9
				c0,16.8,0,33.6,0,50.4c0,1.9-1.4,3.6-3.6,3.6c-11.4,0-22.8,0-34.2,0c-2.1,0-3.6-1.4-3.6-3.5c0-1.5,1.3-3,2.9-3.2
				c0.4,0,0.7-0.1,1.1-0.1c10,0,20.1,0,30.1,0C108.6,79.7,108.8,79.7,109.1,79.7z"/>
			<path class="st1" d="M76.6,54.2c0.2,0,0.4,0,0.6,0c6.6,0,13.1,0,19.7,0c2.1,0,3.6,1.4,3.6,3.3c0.1,1.9-1.5,3.4-3.5,3.4
				c-3.9,0-7.7,0-11.6,0c-2.9,0-5.8,0-8.8,0c0.2,0.2,0.3,0.3,0.4,0.4c1.3,1.3,2.7,2.6,4,4c1.8,1.8,1,4.8-1.4,5.5
				c-1.3,0.4-2.4,0-3.4-0.9c-1.2-1.2-2.4-2.4-3.6-3.6c-2.1-2.1-4.2-4.2-6.2-6.2c-1.5-1.5-1.5-3.5,0-5.1c3.3-3.3,6.6-6.5,9.8-9.8
				c1.8-1.9,4.9-1.2,5.7,1.3c0.4,1.3,0.1,2.5-0.9,3.4c-1.3,1.3-2.5,2.5-3.8,3.8c-0.1,0.1-0.3,0.2-0.4,0.4
				C76.5,54.1,76.5,54.1,76.6,54.2z"/>
		</g>
		<g>
			<path class="st1" d="M135.1,71v-2.7h7.1v3.3c0,3.4,1.5,4.7,3.9,4.7c2.4,0,3.9-1.2,3.9-4.8c0-4-1.5-6.5-6.4-10.8
				c-6.3-5.6-8.4-9.5-8.4-15c0-7.5,3.9-11.9,11.2-11.9s11,4.4,11,12.1v2h-7.1v-2.5c0-3.4-1.4-4.7-3.8-4.7c-2.4,0-3.8,1.3-3.8,4.6
				c0,3.5,1.6,6,6.5,10.4c6.3,5.6,8.3,9.4,8.3,15.4c0,7.8-4,12.2-11.4,12.2C138.8,83.1,135.1,78.7,135.1,71z"/>
			<path class="st1" d="M167.5,34.4h10.2l7.8,48H178l-1.4-9.5V73h-8.6l-1.4,9.4h-7L167.5,34.4z M175.8,66.5l-3.4-23.7h-0.1L169,66.5
				H175.8z"/>
			<path class="st1" d="M189.2,34.4h7.5v41.2h12.4v6.9h-20V34.4z"/>
			<path class="st1" d="M212.8,34.4h7.5v48h-7.5V34.4z"/>
			<path class="st1" d="M226,34.4h11.5c7.5,0,11.2,4.2,11.2,11.9v24.3c0,7.7-3.7,11.9-11.2,11.9H226V34.4z M237.3,75.5
				c2.4,0,3.8-1.2,3.8-4.7v-25c0-3.4-1.4-4.7-3.8-4.7h-3.8v34.3H237.3z"/>
			<path class="st1" d="M259.5,34.4h10.2l7.8,48H270l-1.4-9.5V73H260l-1.4,9.4h-7L259.5,34.4z M267.7,66.5l-3.4-23.7h-0.1l-3.3,23.7
				H267.7z"/>
		</g>
	</g>
</g>
</svg>
